<svg width="66" height="39" viewBox="0 0 66 39" fill="none" xmlns="http://www.w3.org/2000/svg">
<path d="M5.872 37.964L1.61824 32.7409V37.964H0V29.8806H1.32801L5.58079 35.1038V29.8806H7.20001V37.964H5.872Z" fill="#CC4179"/>
<path d="M9.16907 37.964V29.8816H12.9616C13.9095 29.8816 14.6531 30.0712 15.1701 30.4454C15.6948 30.8256 15.9616 31.3562 15.9616 32.0207C15.9616 32.4262 15.8668 32.7897 15.6782 33.1024C15.5199 33.3663 15.3088 33.5832 15.0499 33.7474C15.4261 33.8989 15.7349 34.1295 15.9675 34.4344C16.2333 34.7832 16.3691 35.22 16.3691 35.7331C16.3691 36.4435 16.0916 37.0005 15.5433 37.3884C15.0039 37.7696 14.2114 37.963 13.1883 37.963H9.16907V37.964ZM13.0974 36.6507C14.1948 36.6507 14.7274 36.3028 14.7274 35.5865C14.7274 34.8702 14.1938 34.5223 13.0974 34.5223H10.799V36.6507H13.0974ZM12.8033 33.2207C13.2977 33.2207 13.6818 33.1318 13.9417 32.9568C14.1958 32.7858 14.3199 32.5425 14.3199 32.2132C14.3199 31.8761 14.1958 31.6288 13.9417 31.4578C13.6808 31.2829 13.2977 31.194 12.8033 31.194H10.799V33.2207H12.8033Z" fill="#CC4179"/>
<path d="M23.0072 37.964L21.3909 35.6471C21.3235 35.652 21.2355 35.6549 21.1241 35.6549H19.415V37.964H17.785V29.8816H21.1241C21.8189 29.8816 22.4336 29.9979 22.9505 30.2285C23.4723 30.4601 23.8779 30.7972 24.1564 31.2311C24.4349 31.665 24.5766 32.1858 24.5766 32.78C24.5766 33.3897 24.4251 33.9223 24.1271 34.364C23.8456 34.7813 23.444 35.1018 22.9319 35.3178L24.7847 37.965H23.0072V37.964ZM21.0557 34.2849C21.6753 34.2849 22.1492 34.152 22.4658 33.8901C22.7815 33.6282 22.9349 33.2647 22.9349 32.779C22.9349 32.3011 22.7775 31.9288 22.4658 31.6738C22.1502 31.4148 21.6753 31.2839 21.0557 31.2839H19.414V34.2839H21.0557V34.2849Z" fill="#CC4179"/>
<path d="M28.5948 38.0765C27.9782 38.0765 27.3743 37.9875 26.7997 37.8126C26.2222 37.6367 25.757 37.3993 25.4179 37.1061L25.374 37.068L25.9486 35.7781L26.0287 35.8416C26.3443 36.0918 26.7381 36.2989 27.1994 36.4572C27.6606 36.6156 28.1297 36.6967 28.5948 36.6967C29.1655 36.6967 29.5945 36.6058 29.8701 36.426C30.1388 36.2511 30.2697 36.0283 30.2697 35.7449C30.2697 35.5397 30.1984 35.3755 30.0528 35.2436C29.8994 35.1048 29.701 34.9944 29.4635 34.9152C29.2183 34.8331 28.8772 34.7384 28.4512 34.6338C27.8482 34.4911 27.3518 34.3455 26.9756 34.2009C26.5916 34.0533 26.2574 33.8198 25.9818 33.5051C25.7023 33.1856 25.5606 32.7517 25.5606 32.2133C25.5606 31.7618 25.6847 31.3455 25.93 30.9752C26.1753 30.6058 26.5486 30.3087 27.0391 30.0918C27.5267 29.8768 28.1297 29.7683 28.8313 29.7683C29.3179 29.7683 29.8046 29.8299 30.2776 29.952C30.7525 30.0742 31.1678 30.253 31.5127 30.4836L31.5665 30.5198L31.0437 31.8077L30.9645 31.7618C30.6254 31.5624 30.2658 31.409 29.8964 31.3054C29.5271 31.2019 29.1655 31.1501 28.8196 31.1501C28.2577 31.1501 27.8365 31.2449 27.5688 31.4305C27.3059 31.6123 27.1779 31.8468 27.1779 32.1468C27.1779 32.3511 27.2482 32.5133 27.3948 32.6423C27.5482 32.7781 27.7466 32.8866 27.9841 32.9657C28.2293 33.0478 28.5704 33.1426 28.9964 33.2471C29.5847 33.383 30.0763 33.5266 30.4554 33.6752C30.8424 33.8266 31.1785 34.0602 31.4541 34.3699C31.7336 34.6856 31.8763 35.1146 31.8763 35.6452C31.8763 36.0967 31.7522 36.512 31.5059 36.8784C31.2606 37.2439 30.8854 37.539 30.3909 37.7559C29.9013 37.968 29.2974 38.0765 28.5948 38.0765Z" fill="#CC4179"/>
<path d="M34.805 37.4314C34.1747 37.0845 33.6802 36.6028 33.3216 35.9881C32.9629 35.3734 32.7841 34.6845 32.7841 33.9223C32.7841 33.1601 32.9629 32.4712 33.3216 31.8565C33.6802 31.2418 34.1766 30.7601 34.8099 30.4132C35.4441 30.0663 36.1535 29.8923 36.9382 29.8923C37.5265 29.8923 38.0698 29.9901 38.5682 30.1865C39.0665 30.3829 39.4887 30.6692 39.8366 31.0464L39.304 31.578C38.6854 30.9516 37.9037 30.6389 36.9607 30.6389C36.3343 30.6389 35.7646 30.7826 35.2515 31.0689C34.7385 31.3562 34.3359 31.748 34.0457 32.2464C33.7555 32.7448 33.6099 33.3028 33.6099 33.9223C33.6099 34.5409 33.7555 35.0998 34.0457 35.5982C34.3359 36.0966 34.7375 36.4884 35.2515 36.7757C35.7646 37.063 36.3343 37.2057 36.9607 37.2057C37.9115 37.2057 38.6923 36.8891 39.304 36.2549L39.8366 36.7865C39.4897 37.1637 39.0646 37.4529 38.5633 37.6523C38.061 37.8526 37.5157 37.9523 36.9274 37.9523C36.1418 37.9523 35.4343 37.7783 34.805 37.4314Z" fill="#CC4179"/>
<path d="M42.7858 37.4256C42.1476 37.0748 41.6502 36.594 41.2916 35.9822C40.933 35.3705 40.7542 34.6845 40.7542 33.9223C40.7542 33.1601 40.933 32.4731 41.2916 31.8624C41.6502 31.2506 42.1476 30.7699 42.7858 30.419C43.4239 30.0682 44.1343 29.8923 44.92 29.8923C45.7046 29.8923 46.4121 30.0663 47.0424 30.4132C47.6727 30.7601 48.1692 31.2418 48.5307 31.8565C48.8933 32.4721 49.074 33.1601 49.074 33.9223C49.074 34.6845 48.8933 35.3734 48.5307 35.9881C48.1682 36.6037 47.6718 37.0845 47.0424 37.4314C46.4121 37.7783 45.7046 37.9523 44.92 37.9523C44.1343 37.9523 43.4229 37.7764 42.7858 37.4256ZM46.6174 36.7806C47.1226 36.4972 47.5193 36.1054 47.8056 35.6031C48.092 35.1008 48.2356 34.5409 48.2356 33.9223C48.2356 33.3037 48.092 32.7428 47.8056 32.2415C47.5183 31.7392 47.1226 31.3474 46.6174 31.064C46.1121 30.7806 45.5454 30.6399 44.919 30.6399C44.2926 30.6399 43.7248 30.7816 43.2157 31.064C42.7066 31.3474 42.3059 31.7392 42.0157 32.2415C41.7255 32.7438 41.5799 33.3037 41.5799 33.9223C41.5799 34.5409 41.7255 35.1018 42.0157 35.6031C42.3059 36.1054 42.7066 36.4972 43.2157 36.7806C43.7248 37.064 44.2926 37.2047 44.919 37.2047C45.5454 37.2047 46.1121 37.064 46.6174 36.7806Z" fill="#CC4179"/>
<path d="M56.3639 37.8841L54.5522 35.3365C54.348 35.359 54.1369 35.3707 53.918 35.3707H51.7897V37.8841H50.9522V29.96H53.918C54.9294 29.96 55.7219 30.2013 56.2955 30.6841C56.8692 31.1668 57.1555 31.8313 57.1555 32.6766C57.1555 33.2951 56.9991 33.8179 56.6854 34.244C56.3718 34.6701 55.9252 34.9779 55.3437 35.1665L57.2796 37.8831H56.3639V37.8841ZM55.6965 34.1375C56.1118 33.7906 56.319 33.3039 56.319 32.6776C56.319 32.0365 56.1118 31.544 55.6965 31.2C55.2812 30.857 54.6812 30.685 53.8965 30.685H51.7906V34.6583H53.8965C54.6812 34.6583 55.2812 34.4844 55.6965 34.1375Z" fill="#CC4179"/>
<path d="M64.4805 30.685C65.0541 31.1678 65.3405 31.8323 65.3405 32.6776C65.3405 33.5228 65.0532 34.1854 64.4805 34.6642C63.9069 35.144 63.1144 35.3834 62.103 35.3834H59.9747V37.8851H59.1372V29.9609H62.103C63.1144 29.96 63.9069 30.2013 64.4805 30.685ZM63.8805 34.1316C64.2958 33.7886 64.503 33.303 64.503 32.6766C64.503 32.0355 64.2958 31.543 63.8805 31.1991C63.4652 30.8561 62.8652 30.6841 62.0805 30.6841H59.9747V34.6466H62.0805C62.8662 34.6466 63.4662 34.4756 63.8805 34.1316Z" fill="#CC4179"/>
<path d="M36.7691 20.3873C36.4212 19.9632 36.0626 19.5479 35.7264 19.115C33.6762 16.4785 31.8743 13.6994 30.8551 10.4814C30.2854 8.68144 30.0176 6.85603 30.3176 4.96026C30.6958 2.5671 32.2437 0.648852 34.4707 0.162207C35.3922 -0.0390967 36.4144 -0.0508231 37.3427 0.116278C38.8964 0.395757 39.8785 1.45504 40.3691 2.9482C40.8655 4.45798 40.8841 6.00586 40.7033 7.56743C40.2948 11.102 39.0528 14.4117 37.9486 17.7577C37.6603 18.6323 37.3564 19.501 37.0593 20.3727C36.9635 20.3766 36.8668 20.3824 36.7691 20.3873Z" fill="url(#paint0_linear)"/>
<path d="M23.7626 23.6355C19.6192 21.3655 16.3427 18.3312 15.4935 13.412C14.9404 10.2068 15.6782 7.2156 17.3932 4.48139C17.9219 3.64002 18.5824 2.86413 19.2733 2.14491C20.8339 0.521777 22.7824 0.165099 24.9059 0.661516C26.703 1.08171 27.4075 2.741 26.4919 4.37097C26.0697 5.12243 25.5469 5.81918 25.0525 6.52863C23.2359 9.13873 21.8727 11.9423 21.1837 15.0713C20.4645 18.342 21.1065 21.1749 23.6541 23.4664C23.703 23.5094 23.7274 23.5778 23.7626 23.6355Z" fill="url(#paint1_linear)"/>
<path d="M38.6317 24.5267C38.7137 24.4056 38.7714 24.2873 38.8593 24.1964C41.6082 21.3508 42.9919 17.874 43.6281 14.0306C43.9105 12.3274 44.2809 10.6378 44.659 8.9531C44.7782 8.4215 44.9962 7.89284 45.2649 7.41792C45.9626 6.18372 47.4704 6.0557 48.3724 7.15505C48.6958 7.54984 48.9616 8.01499 49.1581 8.48795C50.873 12.6137 50.1558 17.9414 46.0584 21.2785C43.9496 22.9964 41.5056 23.9961 38.8808 24.602C38.8261 24.6137 38.7558 24.5648 38.6317 24.5267Z" fill="url(#paint2_linear)"/>
<path d="M36.2541 24.8707C35.8906 25.0436 35.7479 25.1648 35.5984 25.1746C33.7721 25.2948 31.9447 25.4579 30.1251 25.0641C26.6268 24.3068 25.0242 21.9723 24.7173 18.7231C24.5756 17.229 24.7955 15.7553 25.161 14.3042C25.2196 14.0706 25.3056 13.842 25.3994 13.6192C25.9193 12.384 26.7333 12.2003 27.5551 13.2791C28.3652 14.3433 29.0825 15.5101 29.6541 16.7189C31.0535 19.6817 32.9717 22.2176 35.4822 24.3127C35.6883 24.4856 35.918 24.6303 36.2541 24.8707Z" fill="url(#paint3_linear)"/>
<defs>
<linearGradient id="paint0_linear" x1="14.8369" y1="10.1936" x2="49.8515" y2="10.1936" gradientUnits="userSpaceOnUse">
<stop stop-color="#EE9B2F"/>
<stop offset="0.5" stop-color="#CC4179"/>
<stop offset="1" stop-color="#652B61"/>
</linearGradient>
<linearGradient id="paint1_linear" x1="14.8369" y1="12.0446" x2="49.8515" y2="12.0446" gradientUnits="userSpaceOnUse">
<stop stop-color="#EE9B2F"/>
<stop offset="0.5" stop-color="#CC4179"/>
<stop offset="1" stop-color="#652B61"/>
</linearGradient>
<linearGradient id="paint2_linear" x1="14.8369" y1="15.5033" x2="49.8515" y2="15.5033" gradientUnits="userSpaceOnUse">
<stop stop-color="#EE9B2F"/>
<stop offset="0.5" stop-color="#CC4179"/>
<stop offset="1" stop-color="#652B61"/>
</linearGradient>
<linearGradient id="paint3_linear" x1="14.837" y1="18.9419" x2="49.8515" y2="18.9419" gradientUnits="userSpaceOnUse">
<stop stop-color="#EE9B2F"/>
<stop offset="0.5" stop-color="#CC4179"/>
<stop offset="1" stop-color="#652B61"/>
</linearGradient>
</defs>
</svg>
